<?xml version="1.0" encoding="UTF-8"?>
<svg id="Layer_2" data-name="Layer 2" xmlns="http://www.w3.org/2000/svg" viewBox="0 0 272.46 117.12">
  <defs>
    <style>
      .cls-1 {
        fill: #fff;
      }

      .cls-2 {
        fill: #f2f2f2;
      }

      .cls-3 {
        fill: #af5500;
      }
    </style>
  </defs>
  <g id="Layer_1-2" data-name="Layer 1">
    <g>
      <g>
        <rect class="cls-2" width="272.46" height="105.23"/>
        <polygon class="cls-3" points="272.46 0 272.46 73.63 64.59 105.23 0 105.23 0 35.29 232.12 0 272.46 0"/>
      </g>
      <g>
        <path class="cls-1" d="m65.38,51.82c-.29,1.09.4,1.86,1.94,1.86,1.41,0,1.83-.65,1.83-1.33,0-.84-.68-1.24-1.81-1.61-1.18-.4-2.84-.79-2.84-2.56,0-1.41,1.09-2.34,2.93-2.34,2.06,0,2.98,1.15,2.77,2.74l-1.14.11c.19-1.41-.44-2-1.69-2s-1.7.61-1.7,1.33c0,.99.89,1.33,2.01,1.68,1.24.4,2.64.86,2.64,2.46,0,1.34-.99,2.43-3.02,2.43-1.88,0-3.24-.93-2.97-2.64l1.05-.12Z"/>
        <path class="cls-1" d="m71.83,45.55h1.25v1.26h-1.25v-1.26Zm.1,2.7h1.06v6.18h-1.06v-6.18Z"/>
        <path class="cls-1" d="m81.84,50.12c0-.7-.35-1.09-.95-1.09-.68,0-1.11.33-1.48.7v4.7h-1.06v-4.32c0-.7-.35-1.09-.95-1.09s-1.04.34-1.41.73v4.68h-1.06v-6.18h.83l.13.91c.48-.64,1-1.06,1.79-1.06.71,0,1.34.33,1.61,1.06.49-.65,1.01-1.06,1.84-1.06.95,0,1.79.55,1.79,1.89v4.44h-1.06v-4.32Z"/>
        <path class="cls-1" d="m84.79,48.25h.83l.13.85c.36-.49.9-1,1.9-1s2.26.7,2.26,3.12c0,2.6-1.46,3.37-2.56,3.37-.63,0-1.15-.2-1.49-.66v3.09h-1.06v-8.76Zm1.06,1.41v3.44c.34.39.73.64,1.33.64.74,0,1.63-.48,1.63-2.46s-.89-2.31-1.53-2.31-1.15.4-1.43.7Z"/>
        <path class="cls-1" d="m91.48,45.49h1.06v7.66c0,.36.17.46.44.46.3,0,.58-.25.58-.25l.12.95s-.39.21-.94.21-1.26-.24-1.26-1.14v-7.9Z"/>
        <path class="cls-1" d="m97.16,48.1c1.46,0,2.36.88,2.36,2.76,0,.19-.01.39-.02.6h-3.89v.06c0,1.76.76,2.23,1.61,2.23.63,0,1.33-.24,1.33-1.03,0-.05-.01-.1-.01-.16l.93.12c0,.06.01.14.01.2,0,1.05-.93,1.69-2.26,1.69-1.64,0-2.73-.98-2.73-3.08,0-1.6.56-3.4,2.68-3.4Zm-1.5,2.58h2.74v-.2c0-.99-.45-1.6-1.26-1.6-.73,0-1.31.46-1.48,1.8Z"/>
        <path class="cls-1" d="m101.07,53.01h1.39v1.81c0,.83-.43,1.55-1.34,1.83l-.28-.61c.68-.15.91-.75.91-1.33v-.28h-.69v-1.43Z"/>
        <path class="cls-1" d="m107.09,45.55h1.25v1.26h-1.25v-1.26Zm.1,2.7h1.06v6.18h-1.06v-6.18Z"/>
        <path class="cls-1" d="m110.18,48.25h.83l.14.91c.51-.69,1.03-1.06,1.94-1.06,1.05,0,1.84.55,1.84,1.89v4.44h-1.06v-4.25c0-.79-.31-1.15-1.04-1.15s-1.18.33-1.58.73v4.68h-1.06v-6.18Z"/>
        <path class="cls-1" d="m117.39,52.57c-.03.1-.04.19-.04.28,0,.68.63.96,1.41.96.95,0,1.28-.42,1.28-.9,0-.66-.73-.85-1.53-1.13-.94-.31-1.95-.7-1.95-1.92,0-1.14.94-1.76,2.31-1.76,1.24,0,2.19.54,2.19,1.6,0,.14-.01.26-.02.36l-1.05.13c.02-.13.04-.24.04-.35,0-.65-.56-.96-1.29-.96s-1.11.34-1.11.86c0,.69.63.86,1.35,1.11.99.34,2.15.6,2.15,1.91,0,1.13-.96,1.81-2.43,1.81-1.03,0-2.3-.4-2.3-1.45,0-.15.02-.3.08-.46l.91-.1Z"/>
        <path class="cls-1" d="m122.61,45.55h1.25v1.26h-1.25v-1.26Zm.1,2.7h1.06v6.18h-1.06v-6.18Z"/>
        <path class="cls-1" d="m127.92,48.1c.85,0,1.38.33,1.68.86l.5-.78h.39v6.46c0,1.59-1.13,2.45-2.59,2.45-1.24,0-2.71-.58-2.21-1.9l.96-.1c-.3.75.49,1.18,1.25,1.18.85,0,1.53-.44,1.53-1.66v-1.34c-.34.51-.89.85-1.65.85-1.16,0-2.39-.68-2.39-2.92,0-2.45,1.38-3.1,2.54-3.1Zm1.5,4.5v-3.03c-.29-.4-.76-.61-1.36-.61-.85,0-1.58.36-1.58,2.14s.73,2.15,1.48,2.15,1.2-.38,1.46-.65Z"/>
        <path class="cls-1" d="m136.22,50.18c0-.79-.3-1.15-1.13-1.15-.73,0-1.2.33-1.61.73v4.68h-1.06v-8.95h1.06v3.62c.48-.65,1-1,1.88-1,1.13,0,1.93.55,1.93,1.89v4.44h-1.06v-4.25Z"/>
        <path class="cls-1" d="m138.5,48.25h1.09l.19-1.76.86-.12v1.89h2.03v.84h-2.03v3.48c0,.84.14,1.21.71,1.21s.85-.4.7-1.23l.93.12c.19,1.19-.46,1.9-1.66,1.9-1.26,0-1.74-.74-1.74-1.83v-3.67h-1.08v-.84Z"/>
        <path class="cls-1" d="m143.64,48.25h1.08v-1.06c0-1.18.54-1.98,1.99-1.98,1.38,0,2.04.7,1.7,1.78l-.95.12c.3-.73-.06-1.13-.78-1.13s-.9.49-.9,1.25v1.01h1.96v.83h-1.96v5.36h-1.06v-5.36h-1.08v-.83Z"/>
        <path class="cls-1" d="m148.94,48.25h1.06v4.25c0,.78.27,1.15.99,1.15.64,0,1.1-.31,1.5-.71v-4.69h1.06v5.28l.12.9h-.85l-.25-.89c-.49.64-1.05,1.04-1.8,1.04-1.1,0-1.84-.55-1.84-1.89v-4.44Z"/>
        <path class="cls-1" d="m155.48,45.49h1.06v7.66c0,.36.17.46.44.46.3,0,.58-.25.58-.25l.13.95s-.39.21-.94.21-1.26-.24-1.26-1.14v-7.9Z"/>
        <path class="cls-1" d="m158.79,53.01h1.39v1.81c0,.83-.43,1.55-1.34,1.83l-.28-.61c.68-.15.91-.75.91-1.33v-.28h-.69v-1.43Z"/>
        <path class="cls-1" d="m167.1,50.89c.68,0,.96.15,1.04.2v-.96c0-.81-.34-1.25-1.18-1.25s-1.28.44-1.08,1.31l-1.05-.13c-.3-1.38.71-1.96,2.16-1.96,1.59,0,2.2.68,2.2,2.03v3.08c0,.29.06.43.26.43.24,0,.4-.17.4-.17l.06.85s-.29.21-.74.21-.96-.21-.99-.99c-.3.55-.84,1.05-1.79,1.05-1.1,0-1.94-.66-1.94-1.71,0-1.28,1.19-1.98,2.63-1.98Zm1.04,2.01v-1.23c-.1-.01-.36-.02-.66-.02-1.28,0-1.89.38-1.89,1.15,0,.64.44.93,1.03.93.66,0,1.14-.43,1.53-.83Z"/>
        <path class="cls-1" d="m171.24,48.25h.83l.14.91c.51-.69,1.03-1.06,1.94-1.06,1.05,0,1.84.55,1.84,1.89v4.44h-1.06v-4.25c0-.79-.31-1.15-1.04-1.15s-1.18.33-1.58.73v4.68h-1.06v-6.18Z"/>
        <path class="cls-1" d="m180.09,48.1c.63,0,1.15.2,1.49.68v-3.29h1.06v8.04l.12.9h-.85l-.21-.76c-.34.46-.85.91-1.79.91-1.04,0-2.39-.61-2.39-3.12s1.46-3.37,2.56-3.37Zm1.49,4.99v-3.5c-.34-.39-.74-.63-1.33-.63-.74,0-1.63.45-1.63,2.44s.89,2.34,1.53,2.34,1.15-.36,1.43-.65Z"/>
        <path class="cls-1" d="m186.69,48.25h1.08v-1.06c0-1.18.54-1.98,1.99-1.98,1.38,0,2.04.7,1.7,1.78l-.95.12c.3-.73-.06-1.13-.78-1.13s-.9.49-.9,1.25v1.01h1.96v.83h-1.96v5.36h-1.06v-5.36h-1.08v-.83Z"/>
        <path class="cls-1" d="m192.03,48.25h.83l.15,1.01c.26-.61.78-1.16,1.65-1.16,1.19,0,1.44,1.26,1.1,2.04l-.94.11c.12-.41.24-1.23-.5-1.23s-1.11.7-1.23,1.15v4.25h-1.06v-6.18Z"/>
        <path class="cls-1" d="m199.48,48.1c1.46,0,2.37.88,2.37,2.76,0,.19-.01.39-.03.6h-3.89v.06c0,1.76.76,2.23,1.61,2.23.63,0,1.33-.24,1.33-1.03,0-.05-.01-.1-.01-.16l.93.12c0,.06.01.14.01.2,0,1.05-.93,1.69-2.26,1.69-1.64,0-2.73-.98-2.73-3.08,0-1.6.56-3.4,2.68-3.4Zm-1.5,2.58h2.74v-.2c0-.99-.45-1.6-1.26-1.6-.73,0-1.31.46-1.48,1.8Z"/>
        <path class="cls-1" d="m205.76,48.1c1.46,0,2.36.88,2.36,2.76,0,.19-.01.39-.02.6h-3.89v.06c0,1.76.76,2.23,1.61,2.23.63,0,1.33-.24,1.33-1.03,0-.05-.01-.1-.01-.16l.93.12c0,.06.01.14.01.2,0,1.05-.93,1.69-2.26,1.69-1.64,0-2.73-.98-2.73-3.08,0-1.6.56-3.4,2.68-3.4Zm-1.5,2.58h2.74v-.2c0-.99-.45-1.6-1.26-1.6-.73,0-1.31.46-1.48,1.8Z"/>
        <path class="cls-1" d="m74.68,60.39h1.06v3.49c.34-.45.85-.88,1.7-.88,1.05,0,2.4.68,2.4,3.18s-1.46,3.3-2.56,3.3c-.68,0-1.35-.24-1.71-.85l-.5.76h-.39v-9.01Zm1.06,4.23v3.4c.34.39.78.62,1.35.62.78,0,1.65-.41,1.65-2.4s-.89-2.38-1.54-2.38c-.7,0-1.23.46-1.46.75Z"/>
        <path class="cls-1" d="m81.39,63.15h1.06v4.25c0,.78.27,1.15.99,1.15.64,0,1.1-.31,1.5-.71v-4.69h1.06v5.28l.12.9h-.85l-.25-.89c-.49.64-1.05,1.04-1.8,1.04-1.1,0-1.84-.55-1.84-1.89v-4.44Z"/>
        <path class="cls-1" d="m90.17,63c.63,0,1.15.2,1.49.68v-3.29h1.06v8.05l.12.9h-.85l-.21-.76c-.34.46-.85.91-1.79.91-1.04,0-2.39-.61-2.39-3.12s1.46-3.37,2.56-3.37Zm1.49,4.99v-3.5c-.34-.39-.74-.63-1.33-.63-.74,0-1.63.45-1.63,2.44s.89,2.34,1.53,2.34,1.15-.36,1.43-.65Z"/>
        <path class="cls-1" d="m96.88,63c.85,0,1.38.33,1.68.86l.5-.78h.39v6.46c0,1.59-1.13,2.45-2.59,2.45-1.24,0-2.72-.58-2.21-1.9l.96-.1c-.3.75.49,1.18,1.25,1.18.85,0,1.53-.44,1.53-1.66v-1.34c-.34.51-.89.85-1.65.85-1.16,0-2.39-.68-2.39-2.92,0-2.45,1.38-3.1,2.54-3.1Zm1.5,4.5v-3.03c-.29-.4-.76-.61-1.36-.61-.85,0-1.58.36-1.58,2.14s.73,2.15,1.48,2.15,1.2-.38,1.46-.65Z"/>
        <path class="cls-1" d="m103.7,63c1.46,0,2.37.88,2.37,2.76,0,.19-.01.39-.03.6h-3.89v.06c0,1.76.76,2.23,1.61,2.23.63,0,1.33-.24,1.33-1.03,0-.05-.01-.1-.01-.16l.93.12c0,.06.01.14.01.2,0,1.05-.93,1.69-2.26,1.69-1.64,0-2.73-.98-2.73-3.08,0-1.6.56-3.4,2.68-3.4Zm-1.5,2.58h2.74v-.2c0-.99-.45-1.6-1.26-1.6-.73,0-1.31.46-1.48,1.8Z"/>
        <path class="cls-1" d="m107,63.15h1.09l.19-1.76.86-.12v1.89h2.03v.84h-2.03v3.48c0,.84.14,1.21.71,1.21s.85-.4.7-1.23l.93.12c.19,1.19-.46,1.9-1.66,1.9-1.26,0-1.74-.74-1.74-1.83v-3.67h-1.08v-.84Z"/>
        <path class="cls-1" d="m112.69,60.45h1.25v1.26h-1.25v-1.26Zm.1,2.7h1.06v6.18h-1.06v-6.18Z"/>
        <path class="cls-1" d="m115.78,63.15h.83l.14.91c.51-.69,1.03-1.06,1.94-1.06,1.05,0,1.84.55,1.84,1.89v4.44h-1.06v-4.25c0-.79-.31-1.15-1.04-1.15s-1.18.33-1.58.73v4.68h-1.06v-6.18Z"/>
        <path class="cls-1" d="m124.62,63c.85,0,1.38.33,1.68.86l.5-.78h.39v6.46c0,1.59-1.13,2.45-2.59,2.45-1.24,0-2.72-.58-2.21-1.9l.96-.1c-.3.75.49,1.18,1.25,1.18.85,0,1.53-.44,1.53-1.66v-1.34c-.34.51-.89.85-1.65.85-1.16,0-2.39-.68-2.39-2.92,0-2.45,1.38-3.1,2.54-3.1Zm1.5,4.5v-3.03c-.29-.4-.76-.61-1.36-.61-.85,0-1.58.36-1.58,2.14s.73,2.15,1.48,2.15,1.2-.38,1.46-.65Z"/>
        <path class="cls-1" d="m131.22,63.15h1.08v-1.06c0-1.18.54-1.98,1.99-1.98,1.38,0,2.04.7,1.7,1.78l-.95.12c.3-.73-.06-1.13-.78-1.13s-.9.49-.9,1.25v1.01h1.96v.83h-1.96v5.36h-1.06v-5.36h-1.08v-.83Z"/>
        <path class="cls-1" d="m138.73,63c1.55,0,2.65.91,2.65,3.27s-1.14,3.22-2.62,3.22-2.67-.89-2.67-3.27,1.1-3.22,2.63-3.22Zm1.55,3.25c0-1.9-.74-2.48-1.55-2.48s-1.53.53-1.53,2.43.74,2.5,1.55,2.5,1.53-.55,1.53-2.45Z"/>
        <path class="cls-1" d="m142.97,63.15h.83l.15,1.01c.26-.61.78-1.16,1.65-1.16,1.19,0,1.44,1.26,1.1,2.04l-.94.11c.12-.41.24-1.23-.5-1.23s-1.11.7-1.23,1.15v4.25h-1.06v-6.18Z"/>
        <path class="cls-1" d="m153.09,63c1.46,0,2.36.88,2.36,2.76,0,.19-.01.39-.02.6h-3.89v.06c0,1.76.76,2.23,1.61,2.23.63,0,1.33-.24,1.33-1.03,0-.05-.01-.1-.01-.16l.93.12c0,.06.01.14.01.2,0,1.05-.93,1.69-2.26,1.69-1.64,0-2.73-.98-2.73-3.08,0-1.6.56-3.4,2.68-3.4Zm-1.5,2.58h2.74v-.2c0-.99-.45-1.6-1.26-1.6-.73,0-1.31.46-1.48,1.8Z"/>
        <path class="cls-1" d="m156.28,63.15h1.1l1.43,4.04c.13.34.23.89.23.89h.05s.12-.55.24-.89l1.44-4.04h.98l-2.23,6.18h-1l-2.23-6.18Z"/>
        <path class="cls-1" d="m165.2,63c1.46,0,2.36.88,2.36,2.76,0,.19-.01.39-.02.6h-3.89v.06c0,1.76.76,2.23,1.61,2.23.63,0,1.33-.24,1.33-1.03,0-.05-.01-.1-.01-.16l.93.12c0,.06.01.14.01.2,0,1.05-.93,1.69-2.26,1.69-1.64,0-2.73-.98-2.73-3.08,0-1.6.56-3.4,2.68-3.4Zm-1.5,2.58h2.74v-.2c0-.99-.45-1.6-1.26-1.6-.73,0-1.31.46-1.48,1.8Z"/>
        <path class="cls-1" d="m169.16,63.15h.83l.15,1.01c.26-.61.78-1.16,1.65-1.16,1.19,0,1.44,1.26,1.1,2.04l-.94.11c.13-.41.24-1.23-.5-1.23s-1.11.7-1.23,1.15v4.25h-1.06v-6.18Z"/>
        <path class="cls-1" d="m174.65,71.03c.41,0,.84-.12,1.06-.76l.25-.7-2.31-6.42h1.11l1.39,3.97c.12.35.31,1.1.31,1.1h.05s.21-.75.33-1.1l1.31-3.97h.98l-2.52,7.33c-.45,1.33-1.36,1.51-1.91,1.51-.6,0-.9-.3-.9-.3l.13-.96c.14.19.41.3.73.3Z"/>
        <path class="cls-1" d="m182.56,63c1.55,0,2.65.91,2.65,3.27s-1.14,3.22-2.62,3.22-2.67-.89-2.67-3.27,1.1-3.22,2.63-3.22Zm1.55,3.25c0-1.9-.74-2.48-1.55-2.48s-1.53.53-1.53,2.43.74,2.5,1.55,2.5,1.53-.55,1.53-2.45Z"/>
        <path class="cls-1" d="m186.81,63.15h.83l.14.91c.51-.69,1.03-1.06,1.94-1.06,1.05,0,1.84.55,1.84,1.89v4.44h-1.06v-4.25c0-.79-.31-1.15-1.04-1.15s-1.18.33-1.58.73v4.68h-1.06v-6.18Z"/>
        <path class="cls-1" d="m195.76,63c1.46,0,2.37.88,2.37,2.76,0,.19-.01.39-.03.6h-3.89v.06c0,1.76.76,2.23,1.61,2.23.63,0,1.33-.24,1.33-1.03,0-.05-.01-.1-.01-.16l.93.12c0,.06.01.14.01.2,0,1.05-.93,1.69-2.26,1.69-1.64,0-2.73-.98-2.73-3.08,0-1.6.56-3.4,2.68-3.4Zm-1.5,2.58h2.74v-.2c0-.99-.45-1.6-1.26-1.6-.73,0-1.31.46-1.48,1.8Z"/>
      </g>
    </g>
  </g>
</svg>