<?xml version="1.0" encoding="UTF-8"?>
<svg id="Layer_2" data-name="Layer 2" xmlns="http://www.w3.org/2000/svg" viewBox="0 0 802.26 309.84">
  <defs>
    <style>
      .cls-1 {
        fill: #fff;
      }

      .cls-2 {
        fill: #f2f2f2;
      }

      .cls-3 {
        fill: #af5500;
      }
    </style>
  </defs>
  <g id="Layer_1-2" data-name="Layer 1">
    <g>
      <rect class="cls-2" width="802.26" height="309.84"/>
      <polygon class="cls-3" points="802.26 0 802.26 216.79 190.19 309.84 0 309.84 0 103.91 683.49 0 802.26 0"/>
    </g>
    <g>
      <path class="cls-1" d="m242.65,148.09c-.64,2.44.9,4.17,4.34,4.17,3.16,0,4.09-1.46,4.09-2.97,0-1.88-1.51-2.77-4.06-3.61-2.63-.9-6.36-1.76-6.36-5.74,0-3.16,2.44-5.24,6.55-5.24,4.62,0,6.66,2.58,6.19,6.13l-2.55.25c.42-3.16-.98-4.48-3.78-4.48s-3.81,1.37-3.81,2.97c0,2.21,1.99,2.97,4.51,3.75,2.77.9,5.91,1.93,5.91,5.52,0,3-2.21,5.43-6.75,5.43-4.2,0-7.25-2.07-6.64-5.91l2.35-.28Z"/>
      <path class="cls-1" d="m257.07,134.06h2.8v2.83h-2.8v-2.83Zm.22,6.05h2.38v13.83h-2.38v-13.83Z"/>
      <path class="cls-1" d="m279.47,144.28c0-1.57-.78-2.44-2.13-2.44-1.51,0-2.49.73-3.3,1.57v10.53h-2.38v-9.66c0-1.57-.78-2.44-2.13-2.44s-2.32.76-3.16,1.62v10.47h-2.38v-13.83h1.85l.28,2.04c1.06-1.43,2.24-2.38,4-2.38,1.6,0,3,.73,3.61,2.38,1.09-1.46,2.27-2.38,4.12-2.38,2.13,0,4,1.23,4,4.23v9.94h-2.38v-9.66Z"/>
      <path class="cls-1" d="m286.05,140.11h1.85l.28,1.9c.81-1.09,2.02-2.24,4.26-2.24s5.07,1.57,5.07,6.97c0,5.82-3.28,7.53-5.74,7.53-1.4,0-2.58-.45-3.33-1.48v6.92h-2.38v-19.6Zm2.38,3.16v7.7c.76.87,1.62,1.43,2.97,1.43,1.65,0,3.64-1.06,3.64-5.52s-1.99-5.18-3.42-5.18-2.58.9-3.19,1.57Z"/>
      <path class="cls-1" d="m301.03,133.92h2.38v17.14c0,.81.39,1.04.98,1.04.67,0,1.29-.56,1.29-.56l.28,2.13s-.87.48-2.1.48-2.83-.53-2.83-2.55v-17.67Z"/>
      <path class="cls-1" d="m313.74,139.77c3.28,0,5.29,1.96,5.29,6.19,0,.42-.03.87-.06,1.34h-8.71v.14c0,3.95,1.71,4.98,3.61,4.98,1.4,0,2.97-.53,2.97-2.3,0-.11-.03-.22-.03-.36l2.07.28c0,.14.03.31.03.45,0,2.35-2.07,3.78-5.07,3.78-3.67,0-6.1-2.18-6.1-6.89,0-3.58,1.26-7.62,5.99-7.62Zm-3.36,5.77h6.13v-.45c0-2.21-1.01-3.58-2.83-3.58-1.62,0-2.94,1.04-3.3,4.03Z"/>
      <path class="cls-1" d="m322.48,150.75h3.11v4.06c0,1.85-.95,3.47-3,4.09l-.62-1.37c1.51-.34,2.04-1.68,2.04-2.97v-.62h-1.54v-3.19Z"/>
      <path class="cls-1" d="m335.95,134.06h2.8v2.83h-2.8v-2.83Zm.22,6.05h2.38v13.83h-2.38v-13.83Z"/>
      <path class="cls-1" d="m342.86,140.11h1.85l.31,2.04c1.15-1.54,2.3-2.38,4.34-2.38,2.35,0,4.12,1.23,4.12,4.23v9.94h-2.38v-9.52c0-1.76-.7-2.58-2.32-2.58s-2.63.73-3.53,1.62v10.47h-2.38v-13.83Z"/>
      <path class="cls-1" d="m358.99,149.77c-.06.22-.08.42-.08.62,0,1.51,1.4,2.16,3.16,2.16,2.13,0,2.86-.95,2.86-2.02,0-1.48-1.62-1.9-3.42-2.52-2.1-.7-4.37-1.57-4.37-4.28,0-2.55,2.1-3.95,5.18-3.95,2.77,0,4.9,1.2,4.9,3.58,0,.31-.03.59-.06.81l-2.35.28c.06-.28.08-.53.08-.78,0-1.46-1.26-2.16-2.88-2.16s-2.49.76-2.49,1.93c0,1.54,1.4,1.93,3.02,2.49,2.21.76,4.82,1.34,4.82,4.28,0,2.52-2.16,4.06-5.43,4.06-2.3,0-5.15-.9-5.15-3.25,0-.34.06-.67.17-1.04l2.04-.22Z"/>
      <path class="cls-1" d="m370.67,134.06h2.8v2.83h-2.8v-2.83Zm.22,6.05h2.38v13.83h-2.38v-13.83Z"/>
      <path class="cls-1" d="m382.54,139.77c1.9,0,3.08.73,3.75,1.93l1.12-1.74h.87v14.45c0,3.56-2.52,5.49-5.8,5.49-2.77,0-6.08-1.29-4.96-4.26l2.16-.22c-.67,1.68,1.09,2.63,2.8,2.63,1.9,0,3.42-.98,3.42-3.72v-3c-.76,1.15-1.99,1.9-3.7,1.9-2.6,0-5.35-1.51-5.35-6.52,0-5.49,3.08-6.94,5.68-6.94Zm3.36,10.08v-6.78c-.64-.9-1.71-1.37-3.05-1.37-1.9,0-3.53.81-3.53,4.79s1.62,4.82,3.3,4.82,2.69-.84,3.28-1.46Z"/>
      <path class="cls-1" d="m401.1,144.42c0-1.76-.67-2.58-2.52-2.58-1.62,0-2.69.73-3.61,1.62v10.47h-2.38v-20.02h2.38v8.09c1.06-1.46,2.24-2.24,4.2-2.24,2.52,0,4.31,1.23,4.31,4.23v9.94h-2.38v-9.52Z"/>
      <path class="cls-1" d="m406.2,140.11h2.44l.42-3.95,1.93-.28v4.23h4.54v1.88h-4.54v7.78c0,1.88.31,2.72,1.6,2.72s1.9-.9,1.57-2.74l2.07.28c.42,2.66-1.04,4.26-3.72,4.26-2.83,0-3.89-1.65-3.89-4.09v-8.2h-2.41v-1.88Z"/>
      <path class="cls-1" d="m417.71,140.11h2.41v-2.38c0-2.63,1.2-4.42,4.45-4.42,3.08,0,4.56,1.57,3.81,3.98l-2.13.28c.67-1.62-.14-2.52-1.74-2.52s-2.02,1.09-2.02,2.8v2.27h4.4v1.85h-4.4v11.98h-2.38v-11.98h-2.41v-1.85Z"/>
      <path class="cls-1" d="m429.55,140.11h2.38v9.52c0,1.74.62,2.58,2.21,2.58,1.43,0,2.46-.7,3.36-1.6v-10.5h2.38v11.82l.28,2.02h-1.9l-.56-1.99c-1.09,1.43-2.35,2.32-4.03,2.32-2.46,0-4.12-1.23-4.12-4.23v-9.94Z"/>
      <path class="cls-1" d="m444.19,133.92h2.38v17.14c0,.81.39,1.04.98,1.04.67,0,1.29-.56,1.29-.56l.28,2.13s-.87.48-2.1.48-2.83-.53-2.83-2.55v-17.67Z"/>
      <path class="cls-1" d="m451.58,150.75h3.11v4.06c0,1.85-.95,3.47-3,4.09l-.62-1.37c1.51-.34,2.04-1.68,2.04-2.97v-.62h-1.54v-3.19Z"/>
      <path class="cls-1" d="m470.18,146.02c1.51,0,2.16.34,2.32.45v-2.16c0-1.82-.76-2.8-2.63-2.8s-2.86.98-2.41,2.94l-2.35-.28c-.67-3.08,1.6-4.4,4.84-4.4,3.56,0,4.93,1.51,4.93,4.54v6.89c0,.64.14.95.59.95.53,0,.9-.39.9-.39l.14,1.9s-.64.48-1.65.48-2.16-.48-2.21-2.21c-.67,1.23-1.88,2.35-4,2.35-2.46,0-4.34-1.48-4.34-3.84,0-2.86,2.66-4.42,5.88-4.42Zm2.32,4.51v-2.74c-.22-.03-.81-.06-1.48-.06-2.86,0-4.23.84-4.23,2.58,0,1.43.98,2.07,2.3,2.07,1.48,0,2.55-.95,3.42-1.85Z"/>
      <path class="cls-1" d="m479.45,140.11h1.85l.31,2.04c1.15-1.54,2.3-2.38,4.34-2.38,2.35,0,4.12,1.23,4.12,4.23v9.94h-2.38v-9.52c0-1.76-.7-2.58-2.32-2.58s-2.63.73-3.53,1.62v10.47h-2.38v-13.83Z"/>
      <path class="cls-1" d="m499.24,139.77c1.4,0,2.58.45,3.33,1.51v-7.36h2.38v18l.28,2.02h-1.9l-.48-1.71c-.76,1.04-1.9,2.04-4,2.04-2.32,0-5.35-1.37-5.35-6.97s3.28-7.53,5.74-7.53Zm3.33,11.17v-7.84c-.76-.87-1.65-1.4-2.97-1.4-1.65,0-3.64,1.01-3.64,5.46s1.99,5.24,3.42,5.24,2.58-.81,3.19-1.46Z"/>
      <path class="cls-1" d="m514,140.11h2.41v-2.38c0-2.63,1.2-4.42,4.45-4.42,3.08,0,4.56,1.57,3.81,3.98l-2.13.28c.67-1.62-.14-2.52-1.74-2.52s-2.02,1.09-2.02,2.8v2.27h4.4v1.85h-4.4v11.98h-2.38v-11.98h-2.41v-1.85Z"/>
      <path class="cls-1" d="m525.95,140.11h1.85l.34,2.27c.59-1.37,1.74-2.6,3.7-2.6,2.66,0,3.22,2.83,2.46,4.56l-2.1.25c.28-.92.53-2.74-1.12-2.74s-2.49,1.57-2.74,2.58v9.52h-2.38v-13.83Z"/>
      <path class="cls-1" d="m542.61,139.77c3.28,0,5.29,1.96,5.29,6.19,0,.42-.03.87-.06,1.34h-8.71v.14c0,3.95,1.71,4.98,3.61,4.98,1.4,0,2.97-.53,2.97-2.3,0-.11-.03-.22-.03-.36l2.07.28c0,.14.03.31.03.45,0,2.35-2.07,3.78-5.07,3.78-3.67,0-6.1-2.18-6.1-6.89,0-3.58,1.26-7.62,5.99-7.62Zm-3.36,5.77h6.13v-.45c0-2.21-1.01-3.58-2.83-3.58-1.62,0-2.94,1.04-3.3,4.03Z"/>
      <path class="cls-1" d="m556.67,139.77c3.28,0,5.29,1.96,5.29,6.19,0,.42-.03.87-.06,1.34h-8.71v.14c0,3.95,1.71,4.98,3.61,4.98,1.4,0,2.97-.53,2.97-2.3,0-.11-.03-.22-.03-.36l2.07.28c0,.14.03.31.03.45,0,2.35-2.07,3.78-5.07,3.78-3.67,0-6.1-2.18-6.1-6.89,0-3.58,1.26-7.62,5.99-7.62Zm-3.36,5.77h6.13v-.45c0-2.21-1.01-3.58-2.83-3.58-1.62,0-2.94,1.04-3.3,4.03Z"/>
      <path class="cls-1" d="m263.44,173.92h2.38v7.81c.76-1.01,1.9-1.96,3.81-1.96,2.35,0,5.38,1.51,5.38,7.11s-3.28,7.39-5.74,7.39c-1.51,0-3.02-.53-3.84-1.9l-1.12,1.71h-.87v-20.16Zm2.38,9.46v7.62c.76.87,1.74,1.4,3.02,1.4,1.74,0,3.7-.92,3.7-5.38s-1.99-5.32-3.44-5.32c-1.57,0-2.74,1.04-3.28,1.68Z"/>
      <path class="cls-1" d="m278.45,180.11h2.38v9.52c0,1.74.62,2.58,2.21,2.58,1.43,0,2.46-.7,3.36-1.6v-10.5h2.38v11.82l.28,2.02h-1.9l-.56-1.99c-1.09,1.43-2.35,2.32-4.03,2.32-2.46,0-4.12-1.23-4.12-4.23v-9.94Z"/>
      <path class="cls-1" d="m298.1,179.77c1.4,0,2.58.45,3.33,1.51v-7.36h2.38v18l.28,2.02h-1.9l-.48-1.71c-.76,1.04-1.9,2.04-4,2.04-2.32,0-5.35-1.37-5.35-6.97s3.28-7.53,5.74-7.53Zm3.33,11.17v-7.84c-.76-.87-1.65-1.4-2.97-1.4-1.65,0-3.64,1.01-3.64,5.46s1.99,5.24,3.42,5.24,2.58-.81,3.19-1.46Z"/>
      <path class="cls-1" d="m313.11,179.77c1.9,0,3.08.73,3.75,1.93l1.12-1.74h.87v14.45c0,3.56-2.52,5.49-5.8,5.49-2.77,0-6.08-1.29-4.96-4.26l2.16-.22c-.67,1.68,1.09,2.63,2.8,2.63,1.9,0,3.42-.98,3.42-3.72v-3c-.76,1.15-1.99,1.9-3.7,1.9-2.6,0-5.35-1.51-5.35-6.52,0-5.49,3.08-6.94,5.68-6.94Zm3.36,10.08v-6.78c-.64-.9-1.71-1.37-3.05-1.37-1.9,0-3.53.81-3.53,4.79s1.62,4.82,3.3,4.82,2.69-.84,3.28-1.46Z"/>
      <path class="cls-1" d="m328.37,179.77c3.28,0,5.29,1.96,5.29,6.19,0,.42-.03.87-.06,1.34h-8.71v.14c0,3.95,1.71,4.98,3.61,4.98,1.4,0,2.97-.53,2.97-2.3,0-.11-.03-.22-.03-.36l2.07.28c0,.14.03.31.03.45,0,2.35-2.07,3.78-5.07,3.78-3.67,0-6.1-2.18-6.1-6.89,0-3.58,1.26-7.62,5.99-7.62Zm-3.36,5.77h6.13v-.45c0-2.21-1.01-3.58-2.83-3.58-1.62,0-2.94,1.04-3.3,4.03Z"/>
      <path class="cls-1" d="m335.74,180.11h2.44l.42-3.95,1.93-.28v4.23h4.54v1.88h-4.54v7.78c0,1.88.31,2.72,1.6,2.72s1.9-.9,1.57-2.74l2.07.28c.42,2.66-1.04,4.26-3.72,4.26-2.83,0-3.89-1.65-3.89-4.09v-8.2h-2.41v-1.88Z"/>
      <path class="cls-1" d="m348.48,174.06h2.8v2.83h-2.8v-2.83Zm.22,6.05h2.38v13.83h-2.38v-13.83Z"/>
      <path class="cls-1" d="m355.39,180.11h1.85l.31,2.04c1.15-1.54,2.3-2.38,4.34-2.38,2.35,0,4.12,1.23,4.12,4.23v9.94h-2.38v-9.52c0-1.76-.7-2.58-2.32-2.58s-2.63.73-3.53,1.62v10.47h-2.38v-13.83Z"/>
      <path class="cls-1" d="m375.16,179.77c1.9,0,3.08.73,3.75,1.93l1.12-1.74h.87v14.45c0,3.56-2.52,5.49-5.8,5.49-2.77,0-6.08-1.29-4.96-4.26l2.16-.22c-.67,1.68,1.09,2.63,2.8,2.63,1.9,0,3.42-.98,3.42-3.72v-3c-.76,1.15-1.99,1.9-3.7,1.9-2.6,0-5.35-1.51-5.35-6.52,0-5.49,3.08-6.94,5.68-6.94Zm3.36,10.08v-6.78c-.64-.9-1.71-1.37-3.05-1.37-1.9,0-3.53.81-3.53,4.79s1.62,4.82,3.3,4.82,2.69-.84,3.28-1.46Z"/>
      <path class="cls-1" d="m389.92,180.11h2.41v-2.38c0-2.63,1.2-4.42,4.45-4.42,3.08,0,4.56,1.57,3.81,3.98l-2.13.28c.67-1.62-.14-2.52-1.74-2.52s-2.02,1.09-2.02,2.8v2.27h4.4v1.85h-4.4v11.98h-2.38v-11.98h-2.41v-1.85Z"/>
      <path class="cls-1" d="m406.72,179.77c3.47,0,5.94,2.04,5.94,7.31s-2.55,7.2-5.85,7.2-5.96-1.99-5.96-7.31,2.46-7.2,5.88-7.2Zm3.47,7.28c0-4.26-1.65-5.54-3.47-5.54s-3.42,1.18-3.42,5.43,1.65,5.6,3.47,5.6,3.42-1.23,3.42-5.49Z"/>
      <path class="cls-1" d="m416.21,180.11h1.85l.34,2.27c.59-1.37,1.74-2.6,3.7-2.6,2.66,0,3.22,2.83,2.46,4.56l-2.1.25c.28-.92.53-2.74-1.12-2.74s-2.49,1.57-2.74,2.58v9.52h-2.38v-13.83Z"/>
      <path class="cls-1" d="m438.83,179.77c3.28,0,5.29,1.96,5.29,6.19,0,.42-.03.87-.06,1.34h-8.71v.14c0,3.95,1.71,4.98,3.61,4.98,1.4,0,2.97-.53,2.97-2.3,0-.11-.03-.22-.03-.36l2.07.28c0,.14.03.31.03.45,0,2.35-2.07,3.78-5.07,3.78-3.67,0-6.1-2.18-6.1-6.89,0-3.58,1.26-7.62,5.99-7.62Zm-3.36,5.77h6.13v-.45c0-2.21-1.01-3.58-2.83-3.58-1.62,0-2.94,1.04-3.3,4.03Z"/>
      <path class="cls-1" d="m445.97,180.11h2.46l3.19,9.04c.28.76.5,1.99.5,1.99h.11s.28-1.23.53-1.99l3.22-9.04h2.18l-4.98,13.83h-2.24l-4.98-13.83Z"/>
      <path class="cls-1" d="m465.94,179.77c3.28,0,5.29,1.96,5.29,6.19,0,.42-.03.87-.06,1.34h-8.71v.14c0,3.95,1.71,4.98,3.61,4.98,1.4,0,2.97-.53,2.97-2.3,0-.11-.03-.22-.03-.36l2.07.28c0,.14.03.31.03.45,0,2.35-2.07,3.78-5.07,3.78-3.67,0-6.1-2.18-6.1-6.89,0-3.58,1.26-7.62,5.99-7.62Zm-3.36,5.77h6.13v-.45c0-2.21-1.01-3.58-2.83-3.58-1.62,0-2.94,1.04-3.3,4.03Z"/>
      <path class="cls-1" d="m474.78,180.11h1.85l.34,2.27c.59-1.37,1.74-2.6,3.7-2.6,2.66,0,3.22,2.83,2.46,4.56l-2.1.25c.28-.92.53-2.74-1.12-2.74s-2.49,1.57-2.74,2.58v9.52h-2.38v-13.83Z"/>
      <path class="cls-1" d="m487.08,197.75c.92,0,1.88-.28,2.38-1.71l.56-1.57-5.18-14.36h2.49l3.11,8.88c.28.78.7,2.46.7,2.46h.11s.48-1.68.73-2.46l2.94-8.88h2.18l-5.63,16.41c-1.01,2.97-3.05,3.39-4.28,3.39-1.34,0-2.02-.67-2.02-.67l.28-2.16c.31.42.92.67,1.62.67Z"/>
      <path class="cls-1" d="m504.77,179.77c3.47,0,5.94,2.04,5.94,7.31s-2.55,7.2-5.85,7.2-5.96-1.99-5.96-7.31,2.46-7.2,5.88-7.2Zm3.47,7.28c0-4.26-1.65-5.54-3.47-5.54s-3.42,1.18-3.42,5.43,1.65,5.6,3.47,5.6,3.42-1.23,3.42-5.49Z"/>
      <path class="cls-1" d="m514.26,180.11h1.85l.31,2.04c1.15-1.54,2.3-2.38,4.34-2.38,2.35,0,4.12,1.23,4.12,4.23v9.94h-2.38v-9.52c0-1.76-.7-2.58-2.32-2.58s-2.63.73-3.53,1.62v10.47h-2.38v-13.83Z"/>
      <path class="cls-1" d="m534.28,179.77c3.28,0,5.29,1.96,5.29,6.19,0,.42-.03.87-.06,1.34h-8.71v.14c0,3.95,1.71,4.98,3.61,4.98,1.4,0,2.97-.53,2.97-2.3,0-.11-.03-.22-.03-.36l2.07.28c0,.14.03.31.03.45,0,2.35-2.07,3.78-5.07,3.78-3.67,0-6.1-2.18-6.1-6.89,0-3.58,1.26-7.62,5.99-7.62Zm-3.36,5.77h6.13v-.45c0-2.21-1.01-3.58-2.83-3.58-1.62,0-2.94,1.04-3.3,4.03Z"/>
    </g>
  </g>
</svg>