<?xml version="1.0" encoding="UTF-8"?>
<svg id="Layer_2" data-name="Layer 2" xmlns="http://www.w3.org/2000/svg" viewBox="0 0 668.7 258.26">
  <defs>
    <style>
      .cls-1 {
        fill: #fff;
      }

      .cls-2 {
        fill: #f2f2f2;
      }

      .cls-3 {
        fill: #af5500;
      }
    </style>
  </defs>
  <g id="Layer_1-2" data-name="Layer 1">
    <rect class="cls-2" width="668.7" height="258.26"/>
    <polygon class="cls-3" points="668.7 0 668.7 180.7 158.53 258.26 0 258.26 0 86.61 569.7 0 668.7 0"/>
    <g>
      <path class="cls-1" d="m130.59,115.82c-.83,3.13,1.15,5.36,5.58,5.36,4.07,0,5.25-1.87,5.25-3.82,0-2.41-1.94-3.56-5.22-4.64-3.38-1.15-8.17-2.27-8.17-7.38,0-4.07,3.13-6.73,8.42-6.73,5.94,0,8.57,3.31,7.96,7.88l-3.28.32c.54-4.07-1.26-5.76-4.86-5.76s-4.9,1.76-4.9,3.82c0,2.84,2.56,3.82,5.8,4.82,3.56,1.15,7.59,2.48,7.59,7.09,0,3.85-2.84,6.98-8.67,6.98-5.4,0-9.32-2.66-8.53-7.6l3.02-.36Z"/>
      <path class="cls-1" d="m149.13,97.79h3.6v3.64h-3.6v-3.64Zm.29,7.78h3.06v17.78h-3.06v-17.78Z"/>
      <path class="cls-1" d="m177.93,110.93c0-2.02-1.01-3.13-2.74-3.13-1.94,0-3.2.94-4.25,2.02v13.53h-3.06v-12.42c0-2.02-1.01-3.13-2.74-3.13s-2.99.97-4.07,2.09v13.46h-3.06v-17.78h2.38l.36,2.63c1.37-1.83,2.88-3.06,5.15-3.06,2.05,0,3.85.94,4.64,3.06,1.4-1.87,2.92-3.06,5.29-3.06,2.74,0,5.15,1.58,5.15,5.44v12.78h-3.06v-12.42Z"/>
      <path class="cls-1" d="m186.39,105.56h2.38l.36,2.45c1.04-1.4,2.59-2.88,5.47-2.88s6.52,2.02,6.52,8.96c0,7.49-4.21,9.68-7.38,9.68-1.8,0-3.31-.58-4.28-1.91v8.89h-3.06v-25.2Zm3.06,4.07v9.9c.97,1.12,2.09,1.84,3.82,1.84,2.12,0,4.68-1.37,4.68-7.09s-2.56-6.66-4.39-6.66-3.31,1.15-4.1,2.02Z"/>
      <path class="cls-1" d="m205.65,97.61h3.06v22.03c0,1.04.5,1.33,1.26,1.33.86,0,1.66-.72,1.66-.72l.36,2.74s-1.12.61-2.7.61-3.64-.68-3.64-3.28v-22.71Z"/>
      <path class="cls-1" d="m221.99,105.13c4.21,0,6.8,2.52,6.8,7.96,0,.54-.04,1.12-.07,1.73h-11.2v.18c0,5.08,2.2,6.41,4.64,6.41,1.8,0,3.82-.68,3.82-2.95,0-.14-.04-.29-.04-.47l2.66.36c0,.18.04.4.04.58,0,3.02-2.66,4.86-6.52,4.86-4.71,0-7.85-2.81-7.85-8.86,0-4.61,1.62-9.79,7.7-9.79Zm-4.32,7.42h7.88v-.58c0-2.84-1.3-4.61-3.64-4.61-2.09,0-3.78,1.33-4.25,5.18Z"/>
      <path class="cls-1" d="m233.23,119.24h4v5.22c0,2.38-1.22,4.46-3.85,5.25l-.79-1.76c1.94-.43,2.63-2.16,2.63-3.82v-.79h-1.98v-4.1Z"/>
      <path class="cls-1" d="m250.54,97.79h3.6v3.64h-3.6v-3.64Zm.29,7.78h3.06v17.78h-3.06v-17.78Z"/>
      <path class="cls-1" d="m259.43,105.56h2.38l.4,2.63c1.48-1.98,2.95-3.06,5.58-3.06,3.02,0,5.29,1.58,5.29,5.44v12.78h-3.06v-12.24c0-2.27-.9-3.31-2.99-3.31s-3.38.94-4.54,2.09v13.46h-3.06v-17.78Z"/>
      <path class="cls-1" d="m280.17,117.98c-.07.29-.11.54-.11.79,0,1.94,1.8,2.77,4.07,2.77,2.74,0,3.67-1.22,3.67-2.59,0-1.91-2.09-2.45-4.39-3.24-2.7-.9-5.62-2.02-5.62-5.51,0-3.28,2.7-5.08,6.66-5.08,3.56,0,6.3,1.55,6.3,4.61,0,.4-.04.76-.07,1.04l-3.02.36c.07-.36.11-.68.11-1.01,0-1.87-1.62-2.77-3.71-2.77s-3.2.97-3.2,2.48c0,1.98,1.8,2.48,3.89,3.2,2.84.97,6.19,1.73,6.19,5.51,0,3.24-2.77,5.22-6.98,5.22-2.95,0-6.62-1.15-6.62-4.18,0-.43.07-.86.22-1.33l2.63-.29Z"/>
      <path class="cls-1" d="m295.18,97.79h3.6v3.64h-3.6v-3.64Zm.29,7.78h3.06v17.78h-3.06v-17.78Z"/>
      <path class="cls-1" d="m310.44,105.13c2.45,0,3.96.94,4.82,2.48l1.44-2.23h1.12v18.57c0,4.57-3.24,7.05-7.45,7.05-3.56,0-7.81-1.66-6.37-5.47l2.77-.29c-.86,2.16,1.4,3.38,3.6,3.38,2.45,0,4.39-1.26,4.39-4.79v-3.85c-.97,1.48-2.56,2.45-4.75,2.45-3.35,0-6.88-1.94-6.88-8.39,0-7.06,3.96-8.93,7.31-8.93Zm4.32,12.96v-8.71c-.83-1.15-2.2-1.76-3.92-1.76-2.45,0-4.54,1.04-4.54,6.16s2.09,6.19,4.25,6.19,3.46-1.08,4.21-1.87Z"/>
      <path class="cls-1" d="m334.31,111.11c0-2.27-.86-3.31-3.24-3.31-2.09,0-3.46.94-4.64,2.09v13.46h-3.06v-25.74h3.06v10.4c1.37-1.87,2.88-2.88,5.4-2.88,3.24,0,5.54,1.58,5.54,5.44v12.78h-3.06v-12.24Z"/>
      <path class="cls-1" d="m340.86,105.56h3.13l.54-5.08,2.48-.36v5.44h5.83v2.41h-5.83v10.01c0,2.41.4,3.49,2.05,3.49s2.45-1.15,2.02-3.53l2.66.36c.54,3.42-1.33,5.47-4.79,5.47-3.64,0-5-2.12-5-5.26v-10.55h-3.1v-2.41Z"/>
      <path class="cls-1" d="m355.66,105.56h3.1v-3.06c0-3.38,1.55-5.69,5.72-5.69,3.96,0,5.87,2.02,4.9,5.11l-2.74.36c.86-2.09-.18-3.24-2.23-3.24s-2.59,1.4-2.59,3.6v2.92h5.65v2.38h-5.65v15.41h-3.06v-15.41h-3.1v-2.38Z"/>
      <path class="cls-1" d="m370.89,105.56h3.06v12.24c0,2.23.79,3.31,2.84,3.31,1.83,0,3.17-.9,4.32-2.05v-13.5h3.06v15.19l.36,2.59h-2.45l-.72-2.56c-1.4,1.84-3.02,2.99-5.18,2.99-3.17,0-5.29-1.58-5.29-5.44v-12.78Z"/>
      <path class="cls-1" d="m389.72,97.61h3.06v22.03c0,1.04.5,1.33,1.26,1.33.86,0,1.66-.72,1.66-.72l.36,2.74s-1.12.61-2.7.61-3.64-.68-3.64-3.28v-22.71Z"/>
      <path class="cls-1" d="m399.22,119.24h4v5.22c0,2.38-1.22,4.46-3.85,5.25l-.79-1.76c1.94-.43,2.63-2.16,2.63-3.82v-.79h-1.98v-4.1Z"/>
      <path class="cls-1" d="m423.12,113.16c1.94,0,2.77.43,2.99.58v-2.77c0-2.34-.97-3.6-3.38-3.6s-3.67,1.26-3.1,3.78l-3.02-.36c-.86-3.96,2.05-5.65,6.23-5.65,4.57,0,6.33,1.94,6.33,5.83v8.85c0,.83.18,1.22.76,1.22.68,0,1.15-.5,1.15-.5l.18,2.45s-.83.61-2.12.61-2.77-.61-2.84-2.84c-.86,1.58-2.41,3.02-5.15,3.02-3.17,0-5.58-1.91-5.58-4.93,0-3.67,3.42-5.69,7.56-5.69Zm2.99,5.79v-3.53c-.29-.04-1.04-.07-1.91-.07-3.67,0-5.43,1.08-5.43,3.31,0,1.83,1.26,2.66,2.95,2.66,1.91,0,3.28-1.22,4.39-2.38Z"/>
      <path class="cls-1" d="m435.04,105.56h2.38l.4,2.63c1.48-1.98,2.95-3.06,5.58-3.06,3.02,0,5.29,1.58,5.29,5.44v12.78h-3.06v-12.24c0-2.27-.9-3.31-2.99-3.31s-3.38.94-4.54,2.09v13.46h-3.06v-17.78Z"/>
      <path class="cls-1" d="m460.49,105.13c1.8,0,3.31.58,4.28,1.94v-9.47h3.06v23.14l.36,2.59h-2.45l-.61-2.2c-.97,1.33-2.45,2.63-5.15,2.63-2.99,0-6.88-1.76-6.88-8.96s4.21-9.68,7.38-9.68Zm4.28,14.36v-10.08c-.97-1.12-2.12-1.8-3.82-1.8-2.12,0-4.68,1.3-4.68,7.02s2.56,6.73,4.39,6.73,3.31-1.04,4.1-1.87Z"/>
      <path class="cls-1" d="m479.46,105.56h3.1v-3.06c0-3.38,1.55-5.69,5.72-5.69,3.96,0,5.87,2.02,4.9,5.11l-2.74.36c.86-2.09-.18-3.24-2.23-3.24s-2.59,1.4-2.59,3.6v2.92h5.65v2.38h-5.65v15.41h-3.06v-15.41h-3.1v-2.38Z"/>
      <path class="cls-1" d="m494.83,105.56h2.38l.43,2.92c.76-1.76,2.23-3.35,4.75-3.35,3.42,0,4.14,3.64,3.17,5.87l-2.7.32c.36-1.19.68-3.53-1.44-3.53s-3.2,2.02-3.53,3.31v12.24h-3.06v-17.78Z"/>
      <path class="cls-1" d="m516.25,105.13c4.21,0,6.8,2.52,6.8,7.96,0,.54-.04,1.12-.07,1.73h-11.2v.18c0,5.08,2.2,6.41,4.64,6.41,1.8,0,3.82-.68,3.82-2.95,0-.14-.04-.29-.04-.47l2.66.36c0,.18.04.4.04.58,0,3.02-2.66,4.86-6.52,4.86-4.71,0-7.85-2.81-7.85-8.86,0-4.61,1.62-9.79,7.7-9.79Zm-4.32,7.42h7.88v-.58c0-2.84-1.3-4.61-3.64-4.61-2.09,0-3.78,1.33-4.25,5.18Z"/>
      <path class="cls-1" d="m534.32,105.13c4.21,0,6.8,2.52,6.8,7.96,0,.54-.04,1.12-.07,1.73h-11.2v.18c0,5.08,2.2,6.41,4.64,6.41,1.8,0,3.82-.68,3.82-2.95,0-.14-.04-.29-.04-.47l2.66.36c0,.18.04.4.04.58,0,3.02-2.66,4.86-6.52,4.86-4.71,0-7.85-2.81-7.85-8.86,0-4.61,1.62-9.79,7.7-9.79Zm-4.32,7.42h7.88v-.58c0-2.84-1.3-4.61-3.64-4.61-2.09,0-3.78,1.33-4.25,5.18Z"/>
      <path class="cls-1" d="m157.32,140.81h3.06v10.04c.97-1.3,2.45-2.52,4.9-2.52,3.02,0,6.91,1.94,6.91,9.14s-4.21,9.5-7.38,9.5c-1.94,0-3.89-.68-4.93-2.45l-1.44,2.2h-1.12v-25.92Zm3.06,12.17v9.79c.97,1.12,2.23,1.8,3.89,1.8,2.23,0,4.75-1.19,4.75-6.91s-2.56-6.84-4.43-6.84c-2.02,0-3.53,1.33-4.21,2.16Z"/>
      <path class="cls-1" d="m176.62,148.76h3.06v12.24c0,2.23.79,3.31,2.84,3.31,1.83,0,3.17-.9,4.32-2.05v-13.5h3.06v15.19l.36,2.59h-2.45l-.72-2.56c-1.4,1.84-3.02,2.99-5.18,2.99-3.17,0-5.29-1.58-5.29-5.44v-12.78Z"/>
      <path class="cls-1" d="m201.89,148.33c1.8,0,3.31.58,4.28,1.94v-9.47h3.06v23.14l.36,2.59h-2.45l-.61-2.2c-.97,1.33-2.45,2.63-5.15,2.63-2.99,0-6.88-1.76-6.88-8.96s4.21-9.68,7.38-9.68Zm4.28,14.36v-10.08c-.97-1.12-2.12-1.8-3.82-1.8-2.12,0-4.68,1.3-4.68,7.02s2.56,6.73,4.39,6.73,3.31-1.04,4.1-1.87Z"/>
      <path class="cls-1" d="m221.18,148.33c2.45,0,3.96.94,4.82,2.48l1.44-2.23h1.12v18.57c0,4.57-3.24,7.05-7.45,7.05-3.56,0-7.81-1.66-6.37-5.47l2.77-.29c-.86,2.16,1.4,3.38,3.6,3.38,2.45,0,4.39-1.26,4.39-4.79v-3.85c-.97,1.48-2.56,2.45-4.75,2.45-3.35,0-6.88-1.94-6.88-8.39,0-7.06,3.96-8.93,7.31-8.93Zm4.32,12.96v-8.71c-.83-1.15-2.2-1.76-3.92-1.76-2.45,0-4.54,1.04-4.54,6.16s2.09,6.19,4.25,6.19,3.46-1.08,4.21-1.87Z"/>
      <path class="cls-1" d="m240.8,148.33c4.21,0,6.8,2.52,6.8,7.96,0,.54-.04,1.12-.07,1.73h-11.2v.18c0,5.08,2.2,6.41,4.64,6.41,1.8,0,3.82-.68,3.82-2.95,0-.14-.04-.29-.04-.47l2.66.36c0,.18.04.4.04.58,0,3.02-2.66,4.86-6.52,4.86-4.71,0-7.85-2.81-7.85-8.86,0-4.61,1.62-9.79,7.7-9.79Zm-4.32,7.42h7.88v-.58c0-2.84-1.3-4.61-3.64-4.61-2.09,0-3.78,1.33-4.25,5.18Z"/>
      <path class="cls-1" d="m250.27,148.76h3.13l.54-5.08,2.48-.36v5.44h5.83v2.41h-5.83v10.01c0,2.41.4,3.49,2.05,3.49s2.45-1.15,2.02-3.53l2.66.36c.54,3.42-1.33,5.47-4.79,5.47-3.64,0-5-2.12-5-5.26v-10.55h-3.1v-2.41Z"/>
      <path class="cls-1" d="m266.65,140.99h3.6v3.64h-3.6v-3.64Zm.29,7.78h3.06v17.78h-3.06v-17.78Z"/>
      <path class="cls-1" d="m275.54,148.76h2.38l.4,2.63c1.48-1.98,2.95-3.06,5.58-3.06,3.02,0,5.29,1.58,5.29,5.44v12.78h-3.06v-12.24c0-2.27-.9-3.31-2.99-3.31s-3.38.94-4.54,2.09v13.46h-3.06v-17.78Z"/>
      <path class="cls-1" d="m300.96,148.33c2.45,0,3.96.94,4.82,2.48l1.44-2.23h1.12v18.57c0,4.57-3.24,7.05-7.45,7.05-3.56,0-7.81-1.66-6.37-5.47l2.77-.29c-.86,2.16,1.4,3.38,3.6,3.38,2.45,0,4.39-1.26,4.39-4.79v-3.85c-.97,1.48-2.56,2.45-4.75,2.45-3.35,0-6.88-1.94-6.88-8.39,0-7.06,3.96-8.93,7.31-8.93Zm4.32,12.96v-8.71c-.83-1.15-2.2-1.76-3.92-1.76-2.45,0-4.54,1.04-4.54,6.16s2.09,6.19,4.25,6.19,3.46-1.08,4.21-1.87Z"/>
      <path class="cls-1" d="m319.93,148.76h3.1v-3.06c0-3.38,1.55-5.69,5.72-5.69,3.96,0,5.87,2.02,4.9,5.11l-2.74.36c.86-2.09-.18-3.24-2.23-3.24s-2.59,1.4-2.59,3.6v2.92h5.65v2.38h-5.65v15.41h-3.06v-15.41h-3.1v-2.38Z"/>
      <path class="cls-1" d="m341.53,148.33c4.46,0,7.63,2.63,7.63,9.4s-3.28,9.25-7.52,9.25-7.67-2.56-7.67-9.4,3.17-9.25,7.56-9.25Zm4.46,9.36c0-5.47-2.12-7.13-4.46-7.13s-4.39,1.51-4.39,6.98,2.12,7.2,4.46,7.2,4.39-1.58,4.39-7.05Z"/>
      <path class="cls-1" d="m353.74,148.76h2.38l.43,2.92c.76-1.76,2.23-3.35,4.75-3.35,3.42,0,4.14,3.64,3.17,5.87l-2.7.32c.36-1.19.68-3.53-1.44-3.53s-3.2,2.02-3.53,3.31v12.24h-3.06v-17.78Z"/>
      <path class="cls-1" d="m382.82,148.33c4.21,0,6.8,2.52,6.8,7.96,0,.54-.04,1.12-.07,1.73h-11.2v.18c0,5.08,2.2,6.41,4.64,6.41,1.8,0,3.82-.68,3.82-2.95,0-.14-.04-.29-.04-.47l2.66.36c0,.18.04.4.04.58,0,3.02-2.66,4.86-6.52,4.86-4.71,0-7.85-2.81-7.85-8.86,0-4.61,1.62-9.79,7.7-9.79Zm-4.32,7.42h7.88v-.58c0-2.84-1.3-4.61-3.64-4.61-2.09,0-3.78,1.33-4.25,5.18Z"/>
      <path class="cls-1" d="m392,148.76h3.17l4.1,11.63c.36.97.65,2.56.65,2.56h.14s.36-1.58.68-2.56l4.14-11.63h2.81l-6.41,17.78h-2.88l-6.41-17.78Z"/>
      <path class="cls-1" d="m417.67,148.33c4.21,0,6.8,2.52,6.8,7.96,0,.54-.04,1.12-.07,1.73h-11.2v.18c0,5.08,2.2,6.41,4.64,6.41,1.8,0,3.82-.68,3.82-2.95,0-.14-.04-.29-.04-.47l2.66.36c0,.18.04.4.04.58,0,3.02-2.66,4.86-6.52,4.86-4.71,0-7.85-2.81-7.85-8.86,0-4.61,1.62-9.79,7.7-9.79Zm-4.32,7.42h7.88v-.58c0-2.84-1.3-4.61-3.64-4.61-2.09,0-3.78,1.33-4.25,5.18Z"/>
      <path class="cls-1" d="m429.05,148.76h2.38l.43,2.92c.76-1.76,2.23-3.35,4.75-3.35,3.42,0,4.14,3.64,3.17,5.87l-2.7.32c.36-1.19.68-3.53-1.44-3.53s-3.2,2.02-3.53,3.31v12.24h-3.06v-17.78Z"/>
      <path class="cls-1" d="m444.85,171.44c1.19,0,2.41-.36,3.06-2.2l.72-2.02-6.66-18.47h3.2l4,11.41c.36,1.01.9,3.17.9,3.17h.14s.61-2.16.94-3.17l3.78-11.41h2.81l-7.24,21.09c-1.3,3.82-3.92,4.36-5.51,4.36-1.73,0-2.59-.86-2.59-.86l.36-2.77c.4.54,1.19.86,2.09.86Z"/>
      <path class="cls-1" d="m467.6,148.33c4.46,0,7.63,2.63,7.63,9.4s-3.28,9.25-7.52,9.25-7.67-2.56-7.67-9.4,3.17-9.25,7.56-9.25Zm4.46,9.36c0-5.47-2.12-7.13-4.46-7.13s-4.39,1.51-4.39,6.98,2.12,7.2,4.46,7.2,4.39-1.58,4.39-7.05Z"/>
      <path class="cls-1" d="m479.81,148.76h2.38l.4,2.63c1.48-1.98,2.95-3.06,5.58-3.06,3.02,0,5.29,1.58,5.29,5.44v12.78h-3.06v-12.24c0-2.27-.9-3.31-2.99-3.31s-3.38.94-4.54,2.09v13.46h-3.06v-17.78Z"/>
      <path class="cls-1" d="m505.55,148.33c4.21,0,6.8,2.52,6.8,7.96,0,.54-.04,1.12-.07,1.73h-11.2v.18c0,5.08,2.2,6.41,4.64,6.41,1.8,0,3.82-.68,3.82-2.95,0-.14-.04-.29-.04-.47l2.66.36c0,.18.04.4.04.58,0,3.02-2.66,4.86-6.52,4.86-4.71,0-7.85-2.81-7.85-8.86,0-4.61,1.62-9.79,7.7-9.79Zm-4.32,7.42h7.88v-.58c0-2.84-1.3-4.61-3.64-4.61-2.09,0-3.78,1.33-4.25,5.18Z"/>
    </g>
  </g>
</svg>